<?xml version="1.0" standalone="no"?>
<!DOCTYPE svg PUBLIC "-//W3C//DTD SVG 20010904//EN"
 "http://www.w3.org/TR/2001/REC-SVG-20010904/DTD/svg10.dtd">
<svg version="1.0" xmlns="http://www.w3.org/2000/svg"
 width="528.000000pt" height="472.000000pt" viewBox="0 0 528.000000 472.000000"
 preserveAspectRatio="xMidYMid meet">

<g transform="translate(0.000000,472.000000) scale(0.100000,-0.100000)"
fill="#000000" stroke="none">
<path d="M4959 3894 c-9 -11 -13 -41 -11 -93 2 -89 -7 -130 -44 -183 -19 -27
-24 -42 -17 -49 15 -15 60 10 116 64 78 77 106 220 50 262 -25 19 -78 19 -94
-1z"/>
<path d="M4469 3833 c-5 -14 -12 -30 -15 -35 -7 -11 56 -38 73 -31 18 7 33
-37 20 -61 -8 -16 -5 -23 13 -38 12 -10 32 -18 43 -18 38 0 107 -40 109 -63 0
-12 2 -28 2 -36 1 -18 22 -26 31 -12 3 6 17 11 30 11 19 0 30 14 61 77 l37 77
-19 34 c-16 28 -31 39 -89 59 -93 32 -105 35 -140 35 -16 -1 -46 4 -65 10 -64
20 -80 19 -91 -9z"/>
<path d="M4143 3823 c4 -6 3 -14 -3 -18 -5 -3 -10 -12 -10 -18 0 -7 5 -4 11 5
12 21 40 13 32 -10 -4 -15 -3 -15 6 -2 9 13 11 12 11 -5 0 -18 2 -17 13 5 11
21 11 26 0 33 -7 4 -18 5 -24 2 -5 -4 -17 -1 -26 7 -10 8 -14 8 -10 1z"/>
<path d="M4089 3803 c-9 -10 -8 -13 2 -13 11 0 11 -2 -1 -10 -8 -5 -10 -10 -5
-10 12 0 43 20 31 20 -5 0 -3 6 3 13 8 10 7 14 -4 14 -9 0 -20 -6 -26 -14z"/>
<path d="M4230 3809 c0 -6 7 -8 16 -5 9 3 12 2 9 -5 -4 -6 -13 -8 -21 -5 -7 3
-16 1 -19 -4 -4 -6 3 -10 13 -10 22 0 46 23 35 33 -10 11 -33 8 -33 -4z"/>
<path d="M1250 3710 c0 -77 -2 -86 -26 -110 -14 -14 -39 -44 -55 -67 -36 -53
-70 -64 -109 -34 -16 11 -32 21 -35 21 -3 0 -5 -18 -5 -41 0 -75 -26 -93 -99
-68 -67 24 -107 -14 -65 -61 24 -26 74 -184 74 -233 0 -15 -7 -50 -16 -76 -8
-26 -14 -67 -12 -91 4 -59 30 -76 155 -98 150 -27 176 -60 107 -140 -40 -48
-39 -68 5 -85 34 -12 41 -36 41 -136 0 -63 1 -67 33 -88 32 -22 114 -46 128
-37 4 2 11 0 14 -6 4 -6 14 -10 23 -9 10 1 24 0 32 -3 111 -40 112 -41 152
-29 22 7 53 9 69 6 l29 -7 -20 -25 c-15 -20 -20 -41 -20 -88 l0 -62 138 -5
c127 -5 142 -7 175 -30 68 -46 82 -73 82 -159 0 -70 -3 -81 -30 -121 -41 -57
-111 -109 -190 -139 -56 -21 -64 -27 -58 -44 4 -11 5 -29 4 -40 -1 -11 -4 -51
-5 -90 -3 -76 -12 -115 -27 -115 -6 0 -8 -4 -4 -9 3 -5 0 -13 -6 -17 -8 -4 -9
-3 -5 5 5 8 -3 11 -31 8 -34 -3 -38 -6 -35 -27 1 -13 6 -27 10 -30 13 -8 14
-107 2 -145 -12 -37 2 -81 22 -69 7 4 8 3 4 -5 -7 -11 7 -20 37 -25 8 -1 21
-7 29 -14 8 -6 18 -9 21 -6 3 3 16 -4 29 -16 16 -16 18 -21 6 -17 -12 4 -15 2
-11 -8 3 -8 9 -13 13 -10 5 3 6 -5 2 -17 -3 -14 -1 -19 6 -14 8 4 8 -3 2 -26
-13 -43 -24 -52 -43 -34 -13 14 -16 14 -21 0 -4 -10 -2 -13 6 -8 8 5 9 2 4
-11 -5 -15 -4 -16 9 -5 8 7 15 9 15 4 0 -4 5 -3 12 4 18 18 30 15 24 -6 -7
-21 34 -69 71 -83 46 -17 113 8 113 43 0 11 14 36 30 55 25 28 28 38 20 53 -6
11 -15 20 -20 20 -17 0 -40 59 -40 103 0 46 15 92 52 162 29 55 88 135 99 135
15 0 10 -45 -12 -94 -13 -31 -19 -62 -17 -94 3 -45 4 -47 35 -50 43 -4 54 19
53 111 -1 55 4 86 22 132 45 111 81 185 89 185 5 0 9 -27 9 -60 0 -33 -4 -60
-9 -60 -10 0 -24 -131 -26 -257 -2 -73 0 -93 11 -93 17 0 18 -16 2 -26 -7 -4
-8 -3 -4 4 4 7 3 12 -2 12 -15 0 -22 -13 -13 -24 16 -21 20 -57 7 -62 -7 -3
-12 -15 -11 -28 2 -14 -2 -23 -11 -23 -10 0 -11 4 -3 13 5 6 9 16 7 20 -1 5 2
20 6 33 5 15 4 27 -4 35 -10 8 -11 6 -5 -13 6 -20 4 -23 -9 -18 -9 4 -16 2
-16 -3 0 -5 -20 -21 -45 -36 -25 -14 -45 -33 -45 -41 0 -21 38 -53 62 -53 10
0 21 -6 24 -13 7 -18 57 -10 81 13 29 28 53 60 46 60 -3 0 4 11 18 26 17 18
19 23 6 18 -10 -3 -17 -1 -17 5 0 6 3 10 8 10 20 -3 32 3 32 17 0 8 -4 12 -10
9 -6 -3 -7 1 -3 10 4 12 8 13 13 5 4 -7 13 -9 19 -6 18 11 13 66 -9 96 -11 16
-23 49 -26 74 -6 37 -2 52 20 90 23 40 44 61 139 138 20 17 31 39 39 79 11 54
10 59 -17 115 -16 33 -39 75 -51 94 -58 95 -86 159 -91 205 -4 45 -1 55 29 98
19 26 53 63 76 83 70 60 57 86 -102 207 -93 70 -104 81 -156 158 -44 64 -91
107 -169 157 -81 50 -121 91 -121 123 0 23 5 27 38 32 20 4 50 10 65 13 27 6
39 -3 160 -128 153 -157 188 -185 244 -194 74 -11 111 31 114 130 2 68 -9 85
-42 62 -31 -21 -97 -20 -132 3 -29 19 -94 105 -161 213 -37 58 -39 69 -40 139
-1 72 -3 80 -40 134 -22 31 -61 75 -88 98 -26 22 -48 46 -48 54 0 7 -3 13 -7
13 -5 0 -44 35 -89 78 -101 98 -178 149 -257 172 -34 10 -82 29 -108 44 -27
15 -74 30 -118 36 -134 19 -169 33 -218 89 l-32 36 -1 -85z m962 -1297 c24
-21 23 -65 -2 -88 -17 -15 -31 -17 -100 -11 -44 3 -92 11 -106 17 -15 5 -70 9
-123 7 -94 -2 -141 5 -141 22 0 4 21 11 48 15 26 3 88 17 137 30 113 30 258
34 287 8z m-422 -1013 c0 -5 -5 -10 -11 -10 -5 0 -7 5 -4 10 3 6 8 10 11 10 2
0 4 -4 4 -10z m-113 -35 c0 -8 -4 -12 -9 -9 -4 3 -8 9 -8 15 0 5 4 9 8 9 5 0
9 -7 9 -15z m80 -261 c-3 -3 -12 -4 -19 -1 -8 3 -5 6 6 6 11 1 17 -2 13 -5z
m630 -60 c-3 -3 -12 -4 -19 -1 -8 3 -5 6 6 6 11 1 17 -2 13 -5z m-123 -46 c-1
-13 -3 -27 -3 -31 -1 -5 -6 -5 -12 -2 -6 4 -17 -1 -24 -11 -12 -16 -14 -17
-15 -3 0 13 45 69 55 69 1 0 1 -10 -1 -22z m-69 -38 c3 -5 1 -10 -4 -10 -6 0
-11 5 -11 10 0 6 2 10 4 10 3 0 8 -4 11 -10z m155 -10 c18 -12 2 -12 -25 0
-13 6 -15 9 -5 9 8 0 22 -4 30 -9z"/>
<path d="M4218 3763 c7 -3 16 -2 19 1 4 3 -2 6 -13 5 -11 0 -14 -3 -6 -6z"/>
<path d="M4077 3753 c-13 -12 -7 -23 11 -22 10 0 12 3 4 6 -6 2 -10 9 -6 14 6
10 0 12 -9 2z"/>
<path d="M3810 3661 c-19 -4 -45 -13 -57 -20 -13 -6 -23 -9 -23 -6 0 3 -9 1
-20 -5 -11 -6 -18 -15 -15 -21 4 -5 3 -9 -2 -8 -4 1 -13 1 -19 0 -14 -1 -60
-41 -48 -41 6 0 16 6 23 13 11 10 11 8 2 -10 -14 -27 -4 -30 16 -5 9 10 12 11
7 2 -6 -12 -4 -13 7 -2 15 14 33 16 25 3 -4 -5 3 -7 15 -4 15 4 17 8 8 14 -21
13 13 21 71 17 27 -1 50 1 50 6 0 5 13 6 29 3 23 -5 30 -2 34 13 3 12 -1 21
-12 23 -14 4 -14 5 2 6 9 0 17 8 17 16 0 16 -45 19 -110 6z m-43 -44 c0 -8 -6
-14 -14 -14 -9 0 -10 4 -2 14 6 7 12 13 14 13 1 0 2 -6 2 -13z"/>
<path d="M361 3646 c-9 -10 -7 -17 6 -27 16 -12 17 -12 6 2 -10 12 -10 18 -1
27 7 7 9 12 6 12 -3 0 -11 -6 -17 -14z"/>
<path d="M525 3630 c-3 -6 1 -7 9 -4 18 7 21 14 7 14 -6 0 -13 -4 -16 -10z"/>
<path d="M695 3509 c-4 -6 -5 -12 -2 -15 2 -3 7 2 10 11 7 17 1 20 -8 4z"/>
<path d="M716 3478 c3 -5 10 -6 15 -3 13 9 11 12 -6 12 -8 0 -12 -4 -9 -9z"/>
<path d="M800 3415 c0 -2 6 -8 13 -14 10 -8 14 -7 14 2 0 8 -6 14 -14 14 -7 0
-13 -1 -13 -2z"/>
<path d="M546 3374 c-18 -48 23 -108 93 -136 44 -17 170 -18 187 0 22 22 13
45 -24 64 -18 9 -42 24 -52 33 -21 19 -133 55 -171 55 -15 0 -30 -7 -33 -16z
m214 -78 c0 -2 -7 -7 -16 -10 -8 -3 -12 -2 -9 4 6 10 25 14 25 6z"/>
<path d="M2180 3378 c0 -20 58 -77 116 -114 29 -19 55 -38 59 -44 3 -5 15 -15
26 -20 30 -17 24 16 -9 48 -15 15 -39 44 -52 64 -37 56 -140 104 -140 66z"/>
<path d="M3101 3381 c-20 -13 -6 -42 16 -35 15 5 15 4 3 -4 -8 -6 -19 -7 -25
-3 -10 9 -55 -3 -55 -14 0 -4 4 -4 9 -1 11 7 8 -21 -4 -31 -4 -4 -5 -2 0 6 5
9 3 12 -6 9 -8 -3 -13 -11 -11 -17 1 -7 -2 -10 -6 -7 -5 3 -17 -3 -27 -14 -10
-11 -15 -20 -12 -20 4 0 -16 -22 -43 -48 -48 -47 -62 -72 -39 -72 16 0 79 68
79 86 0 8 3 13 8 13 20 -3 23 3 11 19 -13 15 -12 16 3 3 16 -12 22 -10 53 13
23 18 32 32 29 44 -4 12 -3 13 3 4 7 -9 14 -7 29 10 32 38 21 82 -15 59z"/>
<path d="M3185 3229 c-34 -32 -54 -57 -51 -66 3 -8 2 -11 -4 -8 -5 3 -17 -6
-26 -20 -13 -20 -15 -39 -11 -84 6 -52 3 -63 -21 -102 -15 -24 -45 -75 -66
-114 -80 -148 -136 -189 -222 -165 -77 22 -90 -1 -55 -98 25 -67 37 -82 69
-82 44 0 180 88 215 139 17 25 44 57 61 71 17 14 48 42 68 62 20 21 64 48 99
63 59 24 63 24 81 8 14 -13 18 -28 16 -61 -3 -43 -5 -46 -65 -83 -93 -56 -145
-103 -239 -215 -47 -56 -106 -116 -132 -135 -46 -32 -80 -61 -129 -106 -41
-39 -27 -87 38 -129 53 -33 94 -117 84 -172 -7 -43 -48 -125 -105 -213 -49
-77 -64 -120 -57 -175 5 -52 47 -112 87 -125 25 -9 60 -63 60 -93 0 -7 13 -30
29 -49 25 -32 27 -42 21 -76 -4 -21 -17 -51 -28 -66 -67 -85 31 -105 114 -24
36 35 45 80 24 120 -6 10 -12 72 -13 136 -2 79 -7 125 -16 139 -18 28 -7 81
13 64 19 -15 62 -107 71 -150 11 -49 26 -70 52 -70 16 0 23 6 23 20 0 25 10
25 54 0 24 -13 33 -15 30 -6 -3 7 1 16 9 19 8 3 22 28 31 55 10 28 29 63 43
79 22 23 27 38 29 88 2 78 1 74 27 84 30 11 35 -5 36 -102 1 -93 18 -133 67
-153 19 -8 34 -18 34 -23 0 -7 29 -16 145 -47 14 -4 32 5 59 30 20 20 47 38
59 42 29 7 80 86 75 116 -3 20 -11 24 -61 32 -53 8 -63 6 -107 -18 -71 -39
-117 -31 -134 22 -9 29 6 49 45 57 42 9 36 22 -13 30 -135 21 -225 79 -280
180 -42 76 -21 204 40 251 12 8 12 15 3 33 -11 20 -9 26 22 55 36 33 67 100
53 113 -4 5 -72 6 -150 5 l-142 -4 -12 27 c-17 37 -15 72 6 80 50 19 110 23
167 10 33 -7 78 -16 100 -18 22 -3 75 -12 118 -21 85 -17 138 -21 135 -8 -6
22 16 119 33 143 10 15 24 50 31 78 6 27 15 48 20 45 4 -3 5 2 2 10 -6 14 50
76 68 76 11 0 38 56 38 79 0 12 -13 35 -29 53 -28 32 -31 32 -102 30 -85 -3
-131 -11 -125 -21 3 -4 -13 -7 -34 -6 -44 1 -75 24 -84 62 -6 22 -10 24 -44
19 -20 -4 -44 -2 -52 3 -16 11 -20 77 -7 129 8 30 7 32 -18 32 -48 0 -83 27
-97 73 -6 23 -17 45 -23 49 -7 5 -6 8 1 8 15 0 26 28 14 35 -4 3 -34 -18 -65
-46z m365 -393 c66 -23 115 -57 135 -96 17 -32 21 -190 6 -190 -6 0 -25 14
-43 31 -18 17 -50 39 -70 50 -30 15 -40 28 -52 68 -8 27 -22 60 -31 74 -31 49
-39 109 -11 89 6 -4 36 -16 66 -26z m-403 -1042 c4 -10 18 -14 47 -13 59 3 66
-4 66 -69 0 -31 7 -70 15 -86 20 -37 20 -36 -18 -36 -41 0 -65 -17 -86 -60
-21 -43 -38 -48 -51 -15 -7 19 -6 33 5 55 21 40 19 54 -10 99 -30 44 -43 105
-27 124 15 18 52 19 59 1z"/>
<path d="M2416 3173 c18 -56 50 -103 71 -103 7 0 13 -5 13 -12 0 -6 3 -9 6 -5
10 9 -47 105 -72 122 -22 14 -23 14 -18 -2z"/>
<path d="M2846 3086 c-30 -39 -31 -46 -13 -46 15 0 55 66 45 75 -3 3 -17 -10
-32 -29z"/>
<path d="M4180 3001 c-36 -14 -71 -30 -78 -34 -18 -12 -14 -37 6 -37 10 0 23
-5 30 -12 7 -7 12 -8 12 -2 0 5 15 10 33 11 22 2 28 0 18 -7 -11 -6 -12 -14
-4 -32 l10 -23 7 22 c6 20 12 21 56 16 40 -5 51 -3 56 11 3 9 1 23 -5 30 -10
11 -8 17 6 25 10 6 14 11 9 11 -5 0 -18 -7 -28 -17 -17 -15 -18 -15 -19 3 0
11 -3 13 -6 7 -9 -23 -18 -14 -18 19 0 17 -4 32 -10 34 -5 1 -39 -10 -75 -25z
m114 -72 c-2 -4 -20 -7 -39 -6 -21 1 -30 4 -22 9 15 9 67 7 61 -3z"/>
<path d="M3510 2314 c0 -4 9 -22 21 -40 15 -24 19 -46 17 -81 l-3 -48 -62 -8
c-89 -12 -79 -29 15 -26 60 2 80 6 93 20 9 10 20 15 25 11 5 -3 3 0 -3 8 -17
19 -16 79 2 110 19 33 19 54 0 47 -8 -4 -17 -2 -20 3 -7 11 -85 14 -85 4z"/>
<path d="M3960 1982 c12 -24 36 -39 47 -28 4 4 -2 14 -12 24 -18 16 -18 16 -6
0 8 -10 9 -18 3 -18 -5 0 -17 10 -26 23 l-17 22 11 -23z"/>
<path d="M3838 1320 c-34 -35 -33 -68 4 -107 42 -45 148 -13 148 45 0 26 -22
69 -44 84 -27 18 -78 8 -108 -22z"/>
<path d="M1376 1309 c-35 -28 -33 -55 10 -95 44 -42 78 -44 116 -7 36 34 38
85 6 107 -32 23 -100 20 -132 -5z"/>
<path d="M1885 790 c-3 -6 1 -7 9 -4 18 7 21 14 7 14 -6 0 -13 -4 -16 -10z"/>
<path d="M1894 668 c-4 -6 -3 -8 3 -5 5 3 10 0 10 -7 0 -8 -6 -12 -14 -9 -17
7 -52 -37 -48 -59 2 -10 -1 -18 -6 -18 -15 0 -35 -23 -33 -37 3 -26 5 -28 13
-14 7 10 9 7 8 -11 -2 -18 -6 -24 -16 -20 -10 4 -12 1 -6 -8 5 -9 4 -11 -4 -6
-9 6 -9 11 -1 21 8 9 7 14 -4 18 -10 4 -13 1 -9 -9 3 -7 0 -14 -6 -14 -6 0
-11 -5 -11 -11 0 -5 5 -7 11 -3 7 4 10 1 7 -7 -3 -8 -10 -13 -16 -12 -6 2 -9
-4 -6 -12 4 -9 -4 -19 -20 -26 -43 -20 -133 -179 -101 -179 31 0 135 77 135
100 0 3 9 15 19 27 26 27 51 78 51 102 0 10 3 21 8 23 17 7 54 96 59 141 5 45
-6 63 -23 35z m9 -51 c3 -8 1 -20 -5 -28 -8 -11 -9 -11 -4 3 7 23 -11 33 -32
16 -15 -12 -16 -11 -3 5 16 20 37 22 44 4z m-26 -44 c1 -24 0 -25 -6 -8 -7 17
-6 35 2 35 2 0 3 -12 4 -27z m-30 -28 c0 -8 -4 -12 -9 -9 -5 3 -6 10 -3 15 9
13 12 11 12 -6z"/>
<path d="M3583 380 c-13 -5 -23 -14 -23 -19 0 -19 116 -130 143 -137 16 -4 43
-1 65 8 31 11 38 19 40 47 3 30 2 32 -17 22 -21 -12 -64 -1 -76 19 -8 13 -95
70 -104 69 -4 0 -16 -4 -28 -9z"/>
</g>
</svg>
